<?xml version="1.0" encoding="UTF-8" standalone="no" ?>
<!DOCTYPE svg PUBLIC "-//W3C//DTD SVG 1.1//EN" "http://www.w3.org/Graphics/SVG/1.1/DTD/svg11.dtd">
<svg xmlns="http://www.w3.org/2000/svg" xmlns:xlink="http://www.w3.org/1999/xlink" version="1.1" width="500" height="500" viewBox="0 0 500 500" xml:space="preserve">
<desc>Created with Fabric.js 3.6.3</desc>
<defs>
</defs>
<g transform="matrix(0.9873596731500272 -2.4183e-16 2.4183e-16 0.9873596731500272 250.00000000000006 250)"  >
<path style="stroke: none; stroke-width: 0; stroke-dasharray: none; stroke-linecap: round; stroke-dashoffset: 0; stroke-linejoin: round; stroke-miterlimit: 4; fill: rgb(0,0,0); fill-rule: nonzero; opacity: 1;"  transform=" translate(-347.214464, -408.15557)" d="m 239.32338 158.15557 c -78.60067 0 -142.108912 63.50635 -142.108912 142.10701 l 0 215.78407 c 0 78.60067 63.508242 142.10892 142.108912 142.10892 l 215.78217 0 c 78.60067 0 142.10891 -63.50825 142.10891 -142.10892 l 0 -215.78407 c 0 -78.60066 -63.50824 -142.10701 -142.10891 -142.10701 l -215.78217 0 z" stroke-linecap="round" />
</g>
<g transform="matrix(2.3065279209678295 0 0 2.3065279209678295 249.99999999999997 250)"  >
<g style=""   >
		<g transform="matrix(1.3333333333333335 0 0 1.3333333333333335 -0.0005866666666491938 -42.78646666666667)"  >
<path style="stroke: none; stroke-width: 1; stroke-dasharray: none; stroke-linecap: butt; stroke-dashoffset: 0; stroke-linejoin: miter; stroke-miterlimit: 4; fill: rgb(255,255,255); fill-rule: nonzero; opacity: 1;"  transform=" translate(-49.99956000000001, -17.910149999999998)" d="m 31.867 20.086 c 0.65625 0 1.2734 -0.13281 1.8516 -0.35938 l 4.5156 5.6484 c 0.14844 0.1875 0.375 0.29688 0.60938 0.29688 h 22.32 c 0.23438 0 0.46094 -0.10938 0.60938 -0.29688 l 4.5156 -5.6484 c 0.57031 0.23438 1.1953 0.35938 1.8516 0.35938 c 2.7422 0 4.9688 -2.2266 4.9688 -4.9688 c 0 -2.7422 -2.2266 -4.9688 -4.9688 -4.9688 c -2.7344 0 -4.9688 2.2266 -4.9688 4.9688 c 0 1.5234 0.6875 2.8828 1.7656 3.7891 l -4.1484 5.1953 h -21.578 l -4.1484 -5.1953 c 1.0781 -0.91406 1.7656 -2.2734 1.7656 -3.7891 c 0 -2.7422 -2.2266 -4.9688 -4.9688 -4.9688 s -4.9688 2.2266 -4.9688 4.9688 c 0.007813 2.7422 2.2344 4.9688 4.9766 4.9688 z m 32.867 -4.9609 c 0 -1.875 1.5234 -3.4062 3.4062 -3.4062 s 3.4062 1.5312 3.4062 3.4062 s -1.5312 3.4062 -3.4062 3.4062 s -3.4062 -1.5312 -3.4062 -3.4062 z m -32.867 -3.4062 c 1.875 0 3.4062 1.5312 3.4062 3.4062 s -1.5234 3.4062 -3.4062 3.4062 c -1.8828 0 -3.4062 -1.5234 -3.4062 -3.4062 s 1.5234 -3.4062 3.4062 -3.4062 z" stroke-linecap="round" />
</g>
		<g transform="matrix(1.3333333333333335 0 0 1.3333333333333335 0.009853333333339265 -26.042319999999997)"  >
<path style="stroke: none; stroke-width: 1; stroke-dasharray: none; stroke-linecap: butt; stroke-dashoffset: 0; stroke-linejoin: miter; stroke-miterlimit: 4; fill: rgb(255,255,255); fill-rule: nonzero; opacity: 1;"  transform=" translate(-50.00739, -30.46826)" d="m 15.125 32.648 c 2.4688 0 4.5234 -1.8203 4.8984 -4.1875 h 5.8125 l 5.3594 9.375 c 0.14063 0.24219 0.39844 0.39062 0.67969 0.39062 h 36.273 c 0.28125 0 0.53906 -0.14844 0.67969 -0.39062 l 5.3594 -9.375 h 5.8125 c 0.375 2.3672 2.4297 4.1875 4.8984 4.1875 c 2.7422 0 4.9688 -2.2266 4.9688 -4.9688 c 0 -2.7422 -2.2266 -4.9688 -4.9688 -4.9688 c -2.4688 0 -4.5234 1.8203 -4.8984 4.1875 h -6.2656 c -0.28125 0 -0.53906 0.14844 -0.67969 0.39062 l -5.3594 9.375 h -35.375 l -5.3594 -9.375 c -0.14063 -0.24219 -0.39844 -0.39062 -0.67969 -0.39062 h -6.2656 c -0.375 -2.3672 -2.4297 -4.1875 -4.8984 -4.1875 c -2.7422 0 -4.9688 2.2266 -4.9688 4.9688 c 0 2.7422 2.2344 4.9688 4.9766 4.9688 z m 69.75 -8.375 c 1.875 0 3.4062 1.5312 3.4062 3.4062 s -1.5312 3.4062 -3.4062 3.4062 s -3.4062 -1.5312 -3.4062 -3.4062 s 1.5312 -3.4062 3.4062 -3.4062 z m -69.75 0 c 1.875 0 3.4062 1.5312 3.4062 3.4062 s -1.5234 3.4062 -3.4062 3.4062 s -3.4062 -1.5312 -3.4062 -3.4062 s 1.5312 -3.4062 3.4062 -3.4062 z" stroke-linecap="round" />
</g>
		<g transform="matrix(1.3333333333333335 0 0 1.3333333333333335 -0.004746666666676447 42.786466666666705)"  >
<path style="stroke: none; stroke-width: 1; stroke-dasharray: none; stroke-linecap: butt; stroke-dashoffset: 0; stroke-linejoin: miter; stroke-miterlimit: 4; fill: rgb(255,255,255); fill-rule: nonzero; opacity: 1;"  transform=" translate(-49.99643999999999, -82.08985000000001)" d="m 68.133 79.914 c -0.65625 0 -1.2734 0.13281 -1.8516 0.35938 l -4.5156 -5.6484 c -0.14844 -0.1875 -0.375 -0.29688 -0.60938 -0.29688 h -22.32 c -0.23438 0 -0.46094 0.10938 -0.60938 0.29688 l -4.5156 5.6484 c -0.57031 -0.23438 -1.1953 -0.35938 -1.8516 -0.35938 c -2.7422 0 -4.9688 2.2266 -4.9688 4.9688 c 0 2.7422 2.2266 4.9688 4.9688 4.9688 c 2.7344 0 4.9688 -2.2266 4.9688 -4.9688 c 0 -1.5234 -0.6875 -2.8828 -1.7656 -3.7891 l 4.1484 -5.1953 h 21.57 l 4.1484 5.1953 c -1.0781 0.91406 -1.7656 2.2734 -1.7656 3.7891 c 0 2.7422 2.2266 4.9688 4.9688 4.9688 c 2.7422 0 4.9688 -2.2266 4.9688 -4.9688 c 0 -2.7422 -2.2266 -4.9688 -4.9688 -4.9688 z m -32.867 4.9609 c 0 1.875 -1.5234 3.4062 -3.4062 3.4062 s -3.4062 -1.5312 -3.4062 -3.4062 s 1.5312 -3.4062 3.4062 -3.4062 s 3.4062 1.5312 3.4062 3.4062 z m 32.867 3.4062 c -1.875 0 -3.4062 -1.5312 -3.4062 -3.4062 s 1.5234 -3.4062 3.4062 -3.4062 c 1.8828 0 3.4062 1.5234 3.4062 3.4062 s -1.5234 3.4062 -3.4062 3.4062 z" stroke-linecap="round" />
</g>
		<g transform="matrix(1.3333333333333335 0 0 1.3333333333333335 0.004813333333359537 26.042320000000018)"  >
<path style="stroke: none; stroke-width: 1; stroke-dasharray: none; stroke-linecap: butt; stroke-dashoffset: 0; stroke-linejoin: miter; stroke-miterlimit: 4; fill: rgb(255,255,255); fill-rule: nonzero; opacity: 1;"  transform=" translate(-50.003610000000016, -69.53174000000001)" d="m 84.875 67.352 c -2.4688 0 -4.5234 1.8203 -4.8984 4.1875 h -5.8125 l -5.3594 -9.375 c -0.14063 -0.24219 -0.39844 -0.39062 -0.67969 -0.39062 h -36.258 c -0.28125 0 -0.53906 0.14844 -0.67969 0.39062 l -5.3594 9.375 h -5.8125 c -0.375 -2.3672 -2.4297 -4.1875 -4.8984 -4.1875 c -2.7422 0 -4.9688 2.2266 -4.9688 4.9688 c 0 2.7422 2.2266 4.9688 4.9688 4.9688 c 2.4688 0 4.5234 -1.8203 4.8984 -4.1875 h 6.2656 c 0.28125 0 0.53906 -0.14844 0.67969 -0.39062 l 5.3594 -9.375 h 35.367 l 5.3594 9.375 c 0.14062 0.24219 0.39844 0.39062 0.67969 0.39062 h 6.2656 c 0.375 2.3672 2.4297 4.1875 4.8984 4.1875 c 2.7422 0 4.9688 -2.2266 4.9688 -4.9688 c 0 -2.7422 -2.2422 -4.9688 -4.9844 -4.9688 z m -69.75 8.375 c -1.875 0 -3.4062 -1.5312 -3.4062 -3.4062 s 1.5312 -3.4062 3.4062 -3.4062 s 3.4062 1.5312 3.4062 3.4062 s -1.5312 3.4062 -3.4062 3.4062 z m 69.75 0 c -1.875 0 -3.4062 -1.5312 -3.4062 -3.4062 s 1.5234 -3.4062 3.4062 -3.4062 s 3.4062 1.5312 3.4062 3.4062 s -1.5312 3.4062 -3.4062 3.4062 z" stroke-linecap="round" />
</g>
		<g transform="matrix(1.3333333333333335 0 0 1.3333333333333335 0 0.00040000000001150227)"  >
<path style="stroke: none; stroke-width: 1; stroke-dasharray: none; stroke-linecap: butt; stroke-dashoffset: 0; stroke-linejoin: miter; stroke-miterlimit: 4; fill: rgb(255,255,255); fill-rule: nonzero; opacity: 1;"  transform=" translate(-50, -50.0003)" d="m 64.617 49.219 h -29.234 c -0.39062 -3.1406 -3.0625 -5.5781 -6.3125 -5.5781 c -3.5078 0 -6.3594 2.8516 -6.3594 6.3594 s 2.8516 6.3594 6.3594 6.3594 c 3.2422 0 5.9219 -2.4375 6.3125 -5.5781 h 29.234 c 0.39062 3.1406 3.0625 5.5781 6.3125 5.5781 c 3.5078 0 6.3594 -2.8516 6.3594 -6.3594 s -2.8516 -6.3594 -6.3594 -6.3594 c -3.2422 0 -5.9219 2.4375 -6.3125 5.5781 z m -35.547 5.5781 c -2.6484 0 -4.7969 -2.1562 -4.7969 -4.7969 s 2.1562 -4.7969 4.7969 -4.7969 c 2.6484 0 4.7969 2.1562 4.7969 4.7969 s -2.1484 4.7969 -4.7969 4.7969 z m 46.656 -4.7969 c 0 2.6484 -2.1562 4.7969 -4.7969 4.7969 c -2.6484 0 -4.7969 -2.1562 -4.7969 -4.7969 s 2.1562 -4.7969 4.7969 -4.7969 c 2.6406 0 4.7969 2.1484 4.7969 4.7969 z" stroke-linecap="round" />
</g>
</g>
</g>
<g transform="matrix(1 0 0 1 199.88647663856958 429.33399698202135)" style=""  ><path fill="#000000" opacity="1" d="M-46.84-1.47L-46.84-1.47Q-46.84 4.68-48.11 8.72Q-49.37 12.76-51.89 15.13Q-54.41 17.50-58.12 18.45Q-61.83 19.40-66.71 19.40L-66.71 19.40L-78.38 19.40L-78.38-22.33L-66.83-22.33Q-61.83-22.33-58.07-21.28Q-54.32-20.22-51.82-17.78Q-49.31-15.34-48.08-11.34Q-46.84-7.35-46.84-1.47ZM-54.20-1.53L-54.20-1.53Q-54.20-5.75-54.86-8.52Q-55.52-11.30-57.06-12.94Q-58.60-14.58-61.13-15.25Q-63.66-15.91-67.40-15.91L-67.40-15.91L-71.35-15.91L-71.35 12.98L-67.40 12.98Q-63.60 12.98-61.07 12.27Q-58.54 11.56-57.00 9.89Q-55.46 8.21-54.83 5.42Q-54.20 2.63-54.20-1.53Z"/><path fill="#000000" opacity="1" d="M-13.10 4.96L-33.91 4.96Q-33.88 7.34-33.41 9.16Q-32.94 10.99-31.95 12.21Q-30.95 13.43-29.37 14.06Q-27.78 14.69-25.46 14.69L-25.46 14.69Q-23.29 14.69-21.62 13.96Q-19.95 13.22-18.53 11.44L-18.53 11.44L-13.55 14.82Q-14.46 16.17-15.57 17.20Q-16.69 18.22-18.17 18.92Q-19.64 19.61-21.53 19.97Q-23.41 20.33-25.82 20.33L-25.82 20.33Q-33.39 20.33-37.00 16.16Q-40.60 11.98-40.60 3.84L-40.60 3.84Q-40.60 0.01-39.83-3.11Q-39.06-6.23-37.36-8.46Q-35.65-10.69-32.91-11.91Q-30.17-13.14-26.19-13.14L-26.19-13.14Q-22.66-13.14-20.17-12.08Q-17.68-11.02-16.12-9.09Q-14.55-7.17-13.82-4.45Q-13.10-1.74-13.10 1.55L-13.10 1.55L-13.10 4.96ZM-33.78 0.19L-19.52 0.19Q-19.52-3.76-21.18-5.82Q-22.84-7.89-26.40-7.89L-26.40-7.89Q-28.21-7.89-29.49-7.36Q-30.77-6.83-31.63-5.81Q-32.49-4.78-33.00-3.28Q-33.51-1.77-33.78 0.19L-33.78 0.19Z"/><path fill="#000000" opacity="1" d="M19.49-12.23L8.25 19.40L2.10 19.40L-9.03-12.23L-2.31-12.23L5.35 10.62L12.89-12.23L19.49-12.23Z"/><path fill="#000000" opacity="1" d="M42.35 13.73L42.35 19.40L23.74 19.40L23.74 13.73L29.50 13.73L29.50-16.66L23.74-16.66L23.74-22.33L42.35-22.33L42.35-16.66L36.53-16.66L36.53 13.73L42.35 13.73Z"/><path fill="#000000" opacity="1" d="M54.44 19.40L46.66 19.40L60.38-1.53L47.02-22.33L55.13-22.33L64.39-7.04L73.95-22.33L81.79-22.33L68.28-1.71L81.73 19.40L73.71 19.40L64.15 3.84L54.44 19.40Z"/></g></svg>